<?xml version="1.0" encoding="utf-8"?>
<!-- Generator: Adobe Illustrator 22.1.0, SVG Export Plug-In . SVG Version: 6.00 Build 0)  -->
<svg version="1.1" id="Layer_1" xmlns="http://www.w3.org/2000/svg" xmlns:xlink="http://www.w3.org/1999/xlink" x="0px" y="0px"
	 viewBox="0 0 66 40" style="enable-background:new 0 0 66 40;" xml:space="preserve">
<style type="text/css">
	.st0{fill:#F4B459;}
	.st1{fill:#FFFFFF;}
	.st2{fill:#36447F;}
	.st3{fill:#C9D5F7;}
</style>
<path class="st0" d="M19.1,4c8.8,0,16,7.2,16,16c0,8.8-7.2,16-16,16s-16-7.2-16-16C3.1,11.2,10.2,4,19.1,4z"/>
<path class="st1" d="M15.1,22c-1.1,0-2,0.9-2,2s0.9,2,2,2s2-0.9,2-2S16.2,22,15.1,22z M14.5,17c-0.8,0-1.4,0.6-1.4,1.4
	c0,0.8,0.6,1.4,1.4,1.4c2.6,0,4.8,2.1,4.8,4.8c0,0.8,0.6,1.4,1.4,1.4c0.8,0,1.4-0.6,1.4-1.4C22.1,20.4,18.7,17,14.5,17z M14.5,12
	c-0.8,0-1.4,0.6-1.4,1.4s0.6,1.4,1.4,1.4c5.3,0,9.7,4.3,9.7,9.7c0,0.8,0.6,1.4,1.4,1.4s1.4-0.6,1.4-1.4C27.1,17.6,21.4,12,14.5,12z"
	/>
<g>
	<g>
		<g>
			<circle class="st2" cx="46.9" cy="20" r="16"/>
		</g>
	</g>
	<g id="Layer_2_1_">
		<g>
			<g>
				<path class="st3" d="M39.8,17.7c0.7,0,1.2,0.1,1.5,0.4c0.3,0.3,0.3,0.7,0.2,1.4c-0.1,0.7-0.4,1.2-0.8,1.5
					c-0.4,0.3-1,0.4-1.7,0.4h-1.2l0.7-3.7C38.4,17.7,39.8,17.7,39.8,17.7z M35.1,25.1H37l0.4-2.4h1.7c0.7,0,1.3-0.1,1.8-0.2
					c0.5-0.2,0.9-0.4,1.3-0.8c0.3-0.3,0.6-0.6,0.8-1c0.2-0.4,0.4-0.8,0.4-1.2c0.2-1.1,0.1-1.9-0.4-2.5c-0.5-0.6-1.3-0.9-2.4-0.9
					h-3.7L35.1,25.1z"/>
				<path class="st3" d="M45.3,13.9h1.9l-0.4,2.4h1.7c1.1,0,1.8,0.2,2.2,0.6c0.4,0.4,0.5,1,0.4,1.8l-0.8,4.1h-2l0.8-3.9
					c0.1-0.4,0.1-0.7-0.1-0.9s-0.5-0.3-1-0.3h-1.5l-1,5.1h-1.9L45.3,13.9z"/>
				<path class="st3" d="M55.4,17.7c0.7,0,1.2,0.1,1.5,0.4c0.3,0.3,0.3,0.7,0.2,1.4c-0.1,0.7-0.4,1.2-0.8,1.5
					c-0.4,0.3-1,0.4-1.7,0.4h-1.2l0.7-3.7C54,17.7,55.4,17.7,55.4,17.7z M50.7,25.1h1.9l0.4-2.4h1.7c0.7,0,1.3-0.1,1.8-0.2
					c0.5-0.2,0.9-0.4,1.3-0.8c0.3-0.3,0.6-0.6,0.8-1c0.2-0.4,0.4-0.8,0.4-1.2c0.2-1.1,0.1-1.9-0.4-2.5c-0.5-0.6-1.3-0.9-2.4-0.9
					h-3.7L50.7,25.1z"/>
			</g>
		</g>
	</g>
</g>
</svg>
